<?xml version="1.0" encoding="iso-8859-1"?>
<!-- Generator: Adobe Illustrator 19.0.0, SVG Export Plug-In . SVG Version: 6.00 Build 0)  -->
<svg version="1.1" id="Capa_1" xmlns="http://www.w3.org/2000/svg" xmlns:xlink="http://www.w3.org/1999/xlink" x="0px" y="0px"
	 viewBox="0 0 64 64" style="enable-background:new 0 0 64 64;" xml:space="preserve">
<g>
	<path d="M59,10h-7V4c0-2.206-1.794-4-4-4s-4,1.794-4,4v6H20V4c0-2.206-1.794-4-4-4s-4,1.794-4,4v6H5c-2.757,0-5,2.243-5,5v8v36
		c0,2.757,2.243,5,5,5h54c2.757,0,5-2.243,5-5V23v-8C64,12.243,61.757,10,59,10z M46,4c0-1.102,0.897-2,2-2s2,0.898,2,2v10
		c0,1.102-0.897,2-2,2s-2-0.898-2-2V4z M14,4c0-1.102,0.897-2,2-2s2,0.898,2,2v10c0,1.102-0.897,2-2,2s-2-0.898-2-2V4z M2,15
		c0-1.654,1.346-3,3-3h7v2c0,2.206,1.794,4,4,4s4-1.794,4-4v-2h24v2c0,2.206,1.794,4,4,4s4-1.794,4-4v-2h7c1.654,0,3,1.346,3,3v7H2
		V15z M59,62H5c-1.654,0-3-1.346-3-3V24h60v35C62,60.654,60.654,62,59,62z"/>
	<path d="M13,28H7c-0.552,0-1,0.447-1,1v6c0,0.553,0.448,1,1,1h6c0.552,0,1-0.447,1-1v-6C14,28.447,13.552,28,13,28z M12,34H8v-4h4
		V34z"/>
	<path d="M35,28h-6c-0.552,0-1,0.447-1,1v6c0,0.553,0.448,1,1,1h6c0.552,0,1-0.447,1-1v-6C36,28.447,35.552,28,35,28z M34,34h-4v-4
		h4V34z"/>
	<path d="M40,36h6c0.552,0,1-0.447,1-1v-6c0-0.553-0.448-1-1-1h-6c-0.552,0-1,0.447-1,1v6C39,35.553,39.448,36,40,36z M41,30h4v4h-4
		V30z"/>
	<path d="M57,28h-6c-0.552,0-1,0.447-1,1v6c0,0.553,0.448,1,1,1h6c0.552,0,1-0.447,1-1v-6C58,28.447,57.552,28,57,28z M56,34h-4v-4
		h4V34z"/>
	<path d="M13,39H7c-0.552,0-1,0.447-1,1v6c0,0.553,0.448,1,1,1h6c0.552,0,1-0.447,1-1v-6C14,39.447,13.552,39,13,39z M12,45H8v-4h4
		V45z"/>
	<path d="M13,50H7c-0.552,0-1,0.447-1,1v6c0,0.553,0.448,1,1,1h6c0.552,0,1-0.447,1-1v-6C14,50.447,13.552,50,13,50z M12,56H8v-4h4
		V56z"/>
	<path d="M24,39h-6c-0.552,0-1,0.447-1,1v6c0,0.553,0.448,1,1,1h6c0.552,0,1-0.447,1-1v-6C25,39.447,24.552,39,24,39z M23,45h-4v-4
		h4V45z"/>
	<path d="M24,28h-6c-0.552,0-1,0.447-1,1v6c0,0.553,0.448,1,1,1h6c0.552,0,1-0.447,1-1v-6C25,28.447,24.552,28,24,28z M23,34h-4v-4
		h4V34z"/>
	<path d="M35,39h-6c-0.552,0-1,0.447-1,1v6c0,0.553,0.448,1,1,1h6c0.552,0,1-0.447,1-1v-6C36,39.447,35.552,39,35,39z M34,45h-4v-4
		h4V45z"/>
	<path d="M57,39h-6c-0.552,0-1,0.447-1,1v6c0,0.553,0.448,1,1,1h6c0.552,0,1-0.447,1-1v-6C58,39.447,57.552,39,57,39z M56,45h-4v-4
		h4V45z"/>
	<path d="M24,50h-6c-0.552,0-1,0.447-1,1v6c0,0.553,0.448,1,1,1h6c0.552,0,1-0.447,1-1v-6C25,50.447,24.552,50,24,50z M23,56h-4v-4
		h4V56z"/>
	<path d="M35,50h-6c-0.552,0-1,0.447-1,1v6c0,0.553,0.448,1,1,1h6c0.552,0,1-0.447,1-1v-6C36,50.447,35.552,50,35,50z M34,56h-4v-4
		h4V56z"/>
	<path d="M46,50h-6c-0.552,0-1,0.447-1,1v6c0,0.553,0.448,1,1,1h6c0.552,0,1-0.447,1-1v-6C47,50.447,46.552,50,46,50z M45,56h-4v-4
		h4V56z"/>
	<path d="M57,50h-6c-0.552,0-1,0.447-1,1v6c0,0.553,0.448,1,1,1h6c0.552,0,1-0.447,1-1v-6C58,50.447,57.552,50,57,50z M56,56h-4v-4
		h4V56z"/>
	<rect x="31" y="18" width="2" height="2"/>
	<rect x="35" y="18" width="2" height="2"/>
	<rect x="27" y="18" width="2" height="2"/>
	<path d="M43.951,39.486l-0.952,0.778l-1.027-0.836c-1.008-0.674-2.363-0.537-3.224,0.319c-0.995,0.996-0.995,2.616,0.021,3.633
		l3.545,3.347C42.506,46.909,42.753,47,43,47s0.494-0.091,0.686-0.272l3.566-3.367c0.995-0.996,0.995-2.616-0.001-3.612
		C46.394,38.891,45.038,38.756,43.951,39.486z M45.858,41.926L43,44.625l-2.837-2.679c-0.216-0.216-0.216-0.568-0.001-0.784
		c0.121-0.12,0.286-0.175,0.426-0.175c0.077,0,0.146,0.017,0.196,0.048l1.584,1.294c0.368,0.301,0.897,0.301,1.266,0l1.505-1.236
		c0.218-0.146,0.514-0.116,0.699,0.069C46.054,41.378,46.054,41.73,45.858,41.926z"/>
</g>
<g>
</g>
<g>
</g>
<g>
</g>
<g>
</g>
<g>
</g>
<g>
</g>
<g>
</g>
<g>
</g>
<g>
</g>
<g>
</g>
<g>
</g>
<g>
</g>
<g>
</g>
<g>
</g>
<g>
</g>
</svg>
