<?xml version="1.0" encoding="iso-8859-1"?>
<!-- Generator: Adobe Illustrator 19.0.0, SVG Export Plug-In . SVG Version: 6.00 Build 0)  -->
<svg version="1.1" id="Layer_1" xmlns="http://www.w3.org/2000/svg" xmlns:xlink="http://www.w3.org/1999/xlink" x="0px" y="0px"
	 viewBox="0 0 512 512" style="enable-background:new 0 0 512 512;" xml:space="preserve">
<g>
	<g>
		<path d="M511.025,196.859c-2.325-7.16-8.399-12.28-15.848-13.363l-109.74-15.946l6.966-40.616
			c1.548-9.029-2.094-17.982-9.504-23.366c-7.411-5.384-17.052-6.08-25.158-1.818l-35.754,18.797l-48.381-98.031
			c-0.001,0-0.001,0-0.001,0c-3.332-6.751-10.078-10.944-17.606-10.944c-7.528,0-14.274,4.193-17.607,10.944l-48.381,98.031
			l-35.754-18.797c-8.107-4.261-17.748-3.567-25.158,1.818c-7.412,5.384-11.053,14.338-9.505,23.366l6.966,40.616L16.823,183.496
			c-7.449,1.083-13.523,6.203-15.848,13.363s-0.422,14.871,4.968,20.125l78.463,76.483l-27.687,26.989
			c-6.56,6.394-8.876,15.778-6.047,24.49c2.83,8.712,10.22,14.943,19.286,16.259l39.569,5.749L90.576,477.455
			c-1.272,7.42,1.722,14.778,7.811,19.203c3.441,2.5,7.467,3.771,11.521,3.771c3.12,0,6.256-0.753,9.155-2.276l98.515-51.792
			l17.001,34.447c4.054,8.214,12.262,13.317,21.423,13.317c9.16,0,17.369-5.103,21.423-13.317l17.001-34.447l98.515,51.792
			c6.66,3.502,14.585,2.932,20.674-1.493c6.091-4.424,9.083-11.783,7.811-19.203l-18.953-110.5l39.57-5.75
			c9.065-1.318,16.455-7.547,19.285-16.259c2.829-8.712,0.513-18.096-6.046-24.489l-27.688-26.989l78.462-76.483
			C511.447,211.73,513.35,204.019,511.025,196.859z M367.233,119.805c1.672-0.878,3.021-0.211,3.677,0.266
			c0.656,0.476,1.708,1.553,1.388,3.416l-7.055,41.129l-23.169-3.367l-11.057-22.404L367.233,119.805z M141.09,120.071
			c0.423-0.307,1.135-0.695,2.036-0.695c0.496,0,1.048,0.117,1.641,0.428l36.215,19.04l-11.057,22.404l-23.169,3.367l-7.054-41.129
			C139.383,121.625,140.436,120.548,141.09,120.071z M72.893,341.018c-1.87-0.272-2.569-1.606-2.82-2.377
			c-0.25-0.771-0.469-2.261,0.884-3.58l28.061-27.353l17.711,17.264l-3.751,21.87L72.893,341.018z M259.13,471.779
			c-0.835,1.694-2.319,1.947-3.13,1.947c-0.811,0-2.295-0.253-3.13-1.947l-17.232-34.914L256,426.16l20.362,10.705L259.13,471.779z
			 M441.044,335.063c1.352,1.318,1.133,2.808,0.883,3.579c-0.251,0.771-0.951,2.105-2.82,2.377l-40.085,5.825l-3.751-21.87
			l17.711-17.264L441.044,335.063z M412.982,279.224l-14.611,14.243l-17.625,17.18c-4.627,4.511-6.737,11.007-5.646,17.377
			l3.731,21.753l3.449,20.11l18.779,109.487l-97.604-51.312l-18.061-9.495l-20.256-10.649c-5.721-3.008-12.552-3.008-18.273,0
			l-20.256,10.649l-18.061,9.495l-97.603,51.312l18.779-109.487l3.449-20.11l3.731-21.753c1.091-6.37-1.019-12.866-5.646-17.378
			l-17.625-17.18l-14.612-14.243l-77.726-75.765l108.721-15.798l20.193-2.934l23.051-3.349c6.396-0.929,11.922-4.943,14.783-10.74
			l11.004-22.297l9.03-18.298L256,32.933l47.925,97.109l9.03,18.297l11.005,22.299c2.861,5.796,8.388,9.81,14.781,10.739
			l23.052,3.349l20.193,2.934l108.721,15.798L412.982,279.224z"/>
	</g>
</g>
<g>
	<g>
		<path d="M172.263,199.964c-0.81-5.574-5.979-9.437-11.561-8.626l-62.367,9.063c-5.574,0.81-9.436,5.986-8.626,11.56
			c0.738,5.077,5.097,8.733,10.081,8.733c0.489,0,0.982-0.036,1.48-0.107l62.367-9.063
			C169.21,210.714,173.073,205.538,172.263,199.964z"/>
	</g>
</g>
<g>
	<g>
		<path d="M81.174,213.201c-0.81-5.574-5.988-9.437-11.561-8.626l-10.712,1.556c-5.574,0.81-9.436,5.986-8.626,11.56
			c0.738,5.077,5.097,8.733,10.081,8.733c0.489,0,0.983-0.036,1.48-0.107l10.712-1.556
			C78.122,223.951,81.984,218.774,81.174,213.201z"/>
	</g>
</g>
<g>
</g>
<g>
</g>
<g>
</g>
<g>
</g>
<g>
</g>
<g>
</g>
<g>
</g>
<g>
</g>
<g>
</g>
<g>
</g>
<g>
</g>
<g>
</g>
<g>
</g>
<g>
</g>
<g>
</g>
</svg>
