<?xml version="1.0" encoding="iso-8859-1"?>
<!-- Generator: Adobe Illustrator 19.0.0, SVG Export Plug-In . SVG Version: 6.00 Build 0)  -->
<svg version="1.1" id="Layer_1" xmlns="http://www.w3.org/2000/svg" xmlns:xlink="http://www.w3.org/1999/xlink" x="0px" y="0px"
	 viewBox="0 0 512 512" style="enable-background:new 0 0 512 512;" xml:space="preserve">
<g>
	<g>
		<path d="M475.077,8.371c-1.562-4.25-5.291-7.373-9.839-8.201L463.079,0c-3.772,0-7.322,1.621-9.754,4.446
			c-8.286,9.677-31.223,13.722-53.478,17.647c-44.646,7.902-105.813,18.671-113.365,86.528
			c-2.039,18.347,1.647,36.028,10.684,51.448c-6.528,7.253-11.844,15.24-16.452,23.612l-35.447-25.318
			c-4.437-3.174-9.651-4.762-14.865-4.762s-10.428,1.587-14.882,4.77l-179.2,128c-9.054,6.468-12.894,18.048-9.498,28.646
			c3.396,10.598,13.252,17.783,24.38,17.783v153.6c0,14.14,11.46,25.6,25.6,25.6h307.2c14.14,0,25.6-11.46,25.6-25.6V332.8
			c11.127,0,20.983-7.185,24.38-17.783s-0.444-22.178-9.498-28.646l-122.795-87.706c3.311-6.519,7.074-12.791,11.767-18.509
			c17.527,15.949,41.225,24.627,67.686,24.627c35.934,0,63.565-13.397,82.099-39.876C496.223,117.854,488.005,43.921,475.077,8.371z
			 M268.801,486.4h-76.8v-128h76.8V486.4z M409.601,307.2h-25.6v179.2h-89.6v-128c0-14.14-11.46-25.6-25.6-25.6h-76.8
			c-14.14,0-25.6,11.46-25.6,25.6v128h-89.6V307.2h-25.6l179.2-128L409.601,307.2z M442.283,150.221
			c-13.449,19.2-34.014,28.954-61.141,28.954c-19.328,0-36.463-5.896-49.135-16.776c9.66-7.296,20.659-13.278,32.777-17.749
			l2.697-1.05c22.059-7.697,42.684-7.501,44.297-7.125l2.748,0.299c6.025,0,11.162-4.096,12.501-10.001
			c1.263-5.7-1.502-11.375-6.409-14.046c12.015-10.846,21.513-23.45,28.373-37.649c1.476-3.072,1.673-6.554,0.546-9.779
			c-1.126-3.226-3.447-5.828-6.528-7.296c-6.11-2.901-14.123-0.154-17.084,5.948c-10.197,21.128-27.221,37.299-51.797,49.126
			c1.51-10.675-0.154-21.274-4.975-30.925c-3.046-6.153-11.187-8.678-17.135-5.751c-3.072,1.527-5.359,4.147-6.451,7.398
			c-1.101,3.277-0.836,6.75,0.691,9.779c7.697,15.428-2.022,29.5-5.786,34.074c-8.422,4.198-16.358,9.097-23.697,14.626
			c-4.361-9.498-6.025-19.977-4.813-30.797c5.41-48.802,47.616-56.252,92.339-64.154c19.098-3.379,37.325-6.579,51.576-13.602
			C464.479,70.426,463.779,119.526,442.283,150.221z"/>
	</g>
</g>
<g>
</g>
<g>
</g>
<g>
</g>
<g>
</g>
<g>
</g>
<g>
</g>
<g>
</g>
<g>
</g>
<g>
</g>
<g>
</g>
<g>
</g>
<g>
</g>
<g>
</g>
<g>
</g>
<g>
</g>
</svg>
